<?xml version="1.0" encoding="UTF-8"?>
<svg id="a" data-name="Layer 1" xmlns="http://www.w3.org/2000/svg" viewBox="0 0 376.06 460.2">
  <path d="M341.59,454.07c-.38-18.25-.23,.98-.43-17.27-.26-23.55-10.39-46-28.22-61.41-18.93-16.36-41.35-27.18-64.07-37.33-7.54-3.37-7.84-4.36-1.33-9.92,20.18-17.25,33.13-38.74,35.84-65.29,1.35-13.21,2.07-26.61,1.2-40.01-.4-6.24-.65-12.46-1.6-18.57-3.12-17.26-13.73-33.79-17.68-39.49-.51-.68-1.01-1.37-1.5-2.1-8.02-11.85-18.56-21.61-30.81-29.16-11.1-6.84-22.43-13.52-35.13-16.86-18.6-4.89-36.4-1.35-53.82,6.08-18.92,8.07-33.52,20.61-44.35,37.17-3.76,5.99-9.45,16.78-12.61,31.06,0,.03-.01,.06-.02,.09-.15,.67-.29,1.34-.42,2.02-.03,.16-.06,.31-.09,.47-.12,.62-.23,1.25-.34,1.88-.9,5.22-1.35,10.51-1.12,15.83,.5,11.29,.88,22.59,1.86,33.84,.81,9.28-.04,18.69,2.73,27.83,7.18,23.73,20.49,43.14,40.3,58.07,4.98,3.76,4.95,3.75-.72,6.56-19.75,9.79-39.62,19.55-56.85,33.41-20.81,16.73-33.93,37.86-33.67,65.72,.17,18.15,.13-1.18-.23,16.96-.1,5.09,1.15,6.58,6.42,6.55,48.4-.21,96.8-.13,145.21-.13m-89.9-187.21c-2.35-7.65-3.54-15.3-2.74-23.2h0s.04-.55,.2-1.49c.06-.46,.1-.92,.17-1.38,.12-.73,.3-1.33,.53-1.88,2.63-9.96,12.7-32.15,50.23-32.15,8.34,0,25.96-6.5,29.73-7.92,.12-.05,.23-.09,.35-.14,9.74-4.48,18.93-10.36,27.54-17.7,5.64-4.81,5.7-4.93,10.04,1.25,7.4,10.57,17.09,18.33,27.87,24.81,.12,.07,.24,.14,.36,.2l3.69,1.85s25.6,11.64,25.84,31.72c0,.14,.01,.28,.03,.41,1.63,12.32-1.79,23.77-5.98,35.03-10.98,29.51-42.01,58.09-81.27,57.13-39.5-.21-74.46-27.14-86.58-66.53Zm135.04,75.35c-.03,23.37-19.73,42.32-43.26,43.04-23.38,.71-41.34-14.4-45.76-28.7-1.99-6.46-2.36-12.95-2.07-19.61,.16-3.58,1.78-3.13,4.08-2.02,27.61,13.37,55.03,12.31,82.15-1.4,3.73-1.89,4.9-.96,4.85,2.85-.02,1.95,0,3.9,0,5.85Z" style="fill: #fff;"/>
  <path d="M94.27,21.65c2.9,.06,4.64,1.89,5.91,4.17,5.61,10.02,11.14,20.09,16.72,30.13,2.09,3.76,.59,6.35-2.78,8.16-3.54,1.9-5.41-.28-6.9-3.13-5.59-10.7-11.2-21.37-17.43-31.73-2.32-3.86,.15-7.68,4.47-7.6Z" style="fill: #fff; stroke: #fff; stroke-miterlimit: 10; stroke-width: 8px;"/>
  <path d="M262.79,62c5.72-10.82,11.38-21.68,17.02-32.54,1.36-2.62,.98-4.9-1.74-6.47-2.64-1.52-5.59-1.98-7.2,.95-6.07,11.07-11.99,22.23-17.6,33.55-1.6,3.24,1.56,7.44,4.95,7.6,2.29,.1,3.65-1.35,4.57-3.09Z" style="fill: #fff; stroke: #fff; stroke-miterlimit: 10; stroke-width: 8px;"/>
  <path d="M332.72,76.97c-7.24,3.36-14.47,6.75-21.67,10.21-1.74,.84-3.5,1.79-4.95,3.03-2.01,1.72-2.35,4.18-1.09,6.39,1.32,2.31,3.53,2.84,6.07,1.68,10.62-4.89,21.28-9.7,31.88-14.64,2.27-1.06,3.85-2.96,3-5.64-.79-2.5-2.88-3.54-5.2-3.51-3.08,.2-5.57,1.34-8.04,2.48Z" style="fill: #fff; stroke: #fff; stroke-miterlimit: 10; stroke-width: 8px;"/>
  <path d="M190.93,26.15c0-5.25-.02-10.5,0-15.76,.01-3.62-1.53-6.31-5.26-6.39-4.17-.09-5.49,2.86-5.47,6.69,.07,10.12,.07,20.23,.06,30.35,0,3.41,.75,6.57,4.81,6.52,4.06-.05,6.16-2.48,5.99-6.82-.19-4.86-.04-9.72-.04-14.59h-.09Z" style="fill: #fff; stroke: #fff; stroke-miterlimit: 10; stroke-width: 8px;"/>
  <path d="M361.17,136.76c-8.51,2.77-17.03,5.47-25.47,8.43-3.01,1.06-4.89,3.28-3.67,6.82,.98,2.86,3.09,4.06,5.96,3.13,10.18-3.29,20.33-6.68,30.47-10.09,2.49-.84,4.06-2.78,3.5-5.35-.6-2.72-2.87-4.01-6.17-4.21-1.25,.34-2.96,.72-4.61,1.26Z" style="fill: #fff; stroke: #fff; stroke-miterlimit: 10; stroke-width: 8px;"/>
  <path d="M25.46,77.34c-1.02,3.08,.86,4.8,3.29,5.98,9.63,4.69,19.27,9.35,28.94,13.93,2.9,1.37,6.02,2.63,7.99-1.35,1.95-3.93-.82-5.89-3.68-7.28-8.94-4.33-17.97-8.45-26.99-12.61-1.4-.65-2.9-1.1-4.18-1.57-2.52-.06-4.57,.46-5.38,2.89Z" style="fill: #fff; stroke: #fff; stroke-miterlimit: 10; stroke-width: 8px;"/>
  <path d="M4.23,140.35c-.95,2.97,1.22,4.46,3.4,5.2,9.75,3.3,19.57,6.41,29.39,9.5,2.64,.83,4.56-.3,5.68-2.76,1.19-2.63,.21-4.9-2.13-5.89-10.03-4.28-20.57-7.02-30.34-9.85-3.4,.02-5.22,1.34-6,3.8Z" style="fill: #fff; stroke: #fff; stroke-miterlimit: 10; stroke-width: 8px;"/>
</svg>