<?xml version="1.0" encoding="utf-8"?>
<!-- Generator: Adobe Illustrator 27.0.0, SVG Export Plug-In . SVG Version: 6.00 Build 0)  -->
<svg version="1.1" id="b" xmlns="http://www.w3.org/2000/svg" xmlns:xlink="http://www.w3.org/1999/xlink" x="0px" y="0px"
	 viewBox="0 0 277 277" style="enable-background:new 0 0 277 277;" xml:space="preserve">
<style type="text/css">
	.st0{fill:none;}
	.st1{fill:#FFFFFF;}
</style>
<g id="d">
	<g>
		<path class="st0" d="M137.7,229.5c-8-8-15.9-15.9-24-23.9c-19.6-19.5-39.9-39.9-59.7-59.8c-7.1-7.1-11.3-16-12.7-26.5
			c-1.9-14.5,1.5-26.9,10.5-37.9C60.2,71,70.5,65.2,83.6,63.5c2.4-0.3,4.7-0.3,6.9-0.3c12.7,0,23.7,4.5,33.7,13.8
			c1.7,1.7,3.6,3.5,5.6,5.5c2.8,2.8,6,3.5,8,3.5c2,0,5.1-0.6,8-3.5c0.8-0.8,1.5-1.5,2.2-2.2c2.4-2.4,4.5-4.6,6.7-6.3
			c7.6-6,15.9-9.4,25.1-10.4c2-0.3,4.1-0.3,6-0.3c13.3,0,24.5,4.7,34.5,14.4c8,7.8,12.6,17.1,14,28.3c0.1,0.8,0.3,1.5,0.3,2.2v0.1
			v8.7l-0.1,0.5c-0.1,0.8-0.3,1.5-0.3,2.4c-1.7,11-6.6,20.1-14.7,28.1c-14.2,14-28.3,28-42.3,42.1
			C163.9,203.3,150.9,216.5,137.7,229.5L137.7,229.5z"/>
		<path class="st1" d="M90.5,73.1c10.1,0,18.9,3.6,26.9,11.2c1.7,1.6,3.5,3.3,5.2,5.2c5.6,5.7,11.8,6.6,15.2,6.6s9.4-0.9,14.9-6.3
			c0.8-0.8,1.5-1.5,2.4-2.4c2.1-2.1,3.9-4.1,5.8-5.5c6.1-4.9,12.7-7.6,20.1-8.3c1.7-0.1,3.3-0.3,5-0.3c10.5,0,19.5,3.8,27.5,11.6
			c6.3,6.3,9.9,13.5,11.1,22.4c0.1,0.6,0.1,1.3,0.3,1.7v7.4c-0.1,0.6-0.1,1.4-0.3,2c-1.4,8.8-5.3,16.2-11.8,22.6
			c-14.2,14.1-28.5,28.4-42.4,42.1c-12.6,12.6-23.1,22.9-32.5,32.4c-5.7-5.7-11.5-11.5-17.1-17.1c-19.5-19.5-39.7-39.7-59.5-59.6
			c-5.6-5.6-8.8-12.4-9.9-20.7c-1.6-11.7,1.1-21.4,8.3-30.3c6.7-8.2,15.1-12.9,25.3-14.2C86.7,73.3,88.7,73.1,90.5,73.1 M90.5,53.2
			c-2.7,0-5.3,0.1-8.2,0.5c-15.7,2-28.4,9.2-38.3,21.4c-10.8,13.3-14.9,28.5-12.7,45.5c1.6,12.4,6.7,23.4,15.5,32.2
			c28.6,28.7,57.3,57.3,86.1,86.1c1,1,2.1,1.6,3.3,2h2.6c1.6-0.6,2.8-1.6,4.1-2.8c13.7-13.5,27.3-27.3,41-40.8
			c14.2-14.1,28.3-28.1,42.4-42.1c9.4-9.3,15.3-20.4,17.4-33.6c0.3-1.3,0.3-2.5,0.5-3.9v-10.1c-0.1-1-0.3-2-0.3-2.8
			c-1.7-13.3-7.4-24.8-16.8-34.1c-11.7-11.5-25.6-17.3-41.5-17.3c-2.4,0-4.6,0.1-6.9,0.3c-11.3,1.1-21.4,5.5-30.3,12.4
			c-3.6,2.8-6.6,6.3-9.9,9.3c-0.3,0.3-0.6,0.5-0.9,0.5c-0.3,0-0.5-0.1-0.9-0.5c-2-2-3.9-3.9-5.8-5.8
			C119.3,58.7,105.8,53.2,90.5,53.2L90.5,53.2L90.5,53.2z"/>
	</g>
</g>
</svg>
