<?xml version="1.0" encoding="UTF-8"?>
<svg id="a" data-name="Layer 1" xmlns="http://www.w3.org/2000/svg" viewBox="0 0 62.09 64.01">
  <defs>
    <style>
      .b {
        stroke-width: .3px;
      }

      .b, .c {
        fill: #fff;
      }

      .b, .c, .d {
        stroke-miterlimit: 10;
      }

      .b, .c, .e, .f, .g {
        stroke: #fff;
      }

      .c {
        stroke-width: .6px;
      }

      .h {
        fill: #336791;
      }

      .d {
        stroke: #000;
        stroke-width: 5.37px;
      }

      .e, .f {
        stroke-linecap: round;
      }

      .e, .f, .g {
        fill: none;
        stroke-width: 1.79px;
      }

      .e, .g {
        stroke-linejoin: round;
      }

      .f {
        stroke-linejoin: bevel;
      }
    </style>
  </defs>
  <path class="d" d="M46.38,46.59c.41-3.39,.29-3.89,2.81-3.34l.64,.06c1.94,.09,4.48-.31,6-1.01,3.21-1.49,5.12-3.98,1.95-3.32-7.22,1.49-7.75-.96-7.75-.96,7.63-11.32,10.82-25.7,8.07-29.22C50.59-.8,37.59,3.74,37.37,3.86h-.07c-1.42-.29-3-.46-4.83-.49-3.27-.05-5.75,.86-7.63,2.29C24.84,5.66,1.65-3.89,2.72,17.68c.23,4.59,6.58,34.75,14.15,25.62,2.77-3.33,5.45-6.15,5.45-6.15,1.32,.88,2.92,1.33,4.58,1.17l.13-.11c-.04,.43-.02,.87,.05,1.29-1.95,2.18-1.38,2.56-5.27,3.37-3.95,.81-1.62,2.26-.11,2.64,1.84,.46,6.08,1.11,8.95-2.91l-.11,.46c.76,.61,.71,4.4,.82,7.11s.29,5.23,.84,6.72,1.2,5.33,6.32,4.25c4.28-.92,7.56-2.24,7.86-14.52"/>
  <path class="h" d="M57.76,39c-7.22,1.49-7.75-.96-7.75-.96,7.63-11.32,10.82-25.7,8.07-29.22C50.57-.77,37.57,3.77,37.35,3.89h-.07c-1.59-.31-3.2-.47-4.82-.49-3.27-.05-5.75,.86-7.63,2.29C24.82,5.68,1.63-3.87,2.71,17.7c.23,4.59,6.58,34.75,14.15,25.63,2.79-3.36,5.46-6.17,5.46-6.17,1.32,.88,2.92,1.33,4.58,1.17l.13-.11c-.04,.43-.02,.87,.05,1.29-1.95,2.18-1.38,2.56-5.27,3.37-3.95,.81-1.62,2.26-.11,2.64,1.84,.46,6.08,1.11,8.95-2.91l-.11,.46c.76,.61,1.3,3.98,1.21,7.04s-.15,5.15,.45,6.79,1.2,5.33,6.32,4.25c4.28-.92,6.5-3.3,6.81-7.27,.22-2.82,.71-2.4,.75-4.92l.4-1.2c.46-3.83,.08-5.06,2.71-4.48l.64,.06c1.94,.09,4.49-.31,5.97-1.01,3.21-1.49,5.12-3.98,1.95-3.32h0Z"/>
  <g>
    <g>
      <path class="e" d="M30.96,41.17c-.2,7.12,.05,14.28,.75,16s2.19,5.12,7.31,4.03c4.28-.92,5.84-2.69,6.52-6.62l1.58-12.54M24.81,5.5S1.6-3.99,2.68,17.58c.23,4.59,6.57,34.75,14.15,25.63,2.77-3.33,5.27-5.94,5.27-5.94M37.35,3.77c-.8,.25,12.91-5.01,20.7,4.95,2.75,3.52-.44,17.89-8.07,29.22"/>
      <path class="f" d="M49.98,37.93s.5,2.45,7.75,.95c3.17-.66,1.26,1.83-1.95,3.32-2.64,1.22-8.54,1.54-8.64-.15-.25-4.36,3.11-3.04,2.87-4.13-.22-.99-1.73-1.95-2.72-4.36-.87-2.1-11.9-18.22,3.06-15.83,.55-.11-3.9-14.25-17.9-14.46s-13.56,17.21-13.56,17.21"/>
    </g>
    <g>
      <path class="g" d="M27.04,39.42c-1.95,2.18-1.38,2.56-5.27,3.37-3.95,.81-1.62,2.26-.11,2.64,1.84,.46,6.08,1.11,8.95-2.91,.88-1.22,0-3.18-1.21-3.67-.58-.24-1.35-.54-2.35,.57h0Z"/>
      <path class="e" d="M26.91,39.38c-.2-1.28,.42-2.8,1.08-4.59,.99-2.67,3.29-5.35,1.45-13.84-1.37-6.32-10.55-1.32-10.55-.46s.41,4.35-.15,8.41c-.74,5.3,3.38,9.79,8.12,9.33"/>
    </g>
  </g>
  <g>
    <path class="c" d="M24.73,20.36c-.04,.29,.54,1.08,1.29,1.18s1.39-.5,1.44-.8-.54-.62-1.29-.72-1.4,.05-1.44,.34Z"/>
    <path class="b" d="M47.64,19.77c.04,.29-.54,1.08-1.29,1.18s-1.4-.5-1.44-.8,.54-.61,1.29-.72,1.4,.05,1.44,.34Z"/>
  </g>
  <path class="e" d="M50.33,17.74c.12,2.3-.49,3.86-.57,6.31-.11,3.55,1.69,7.63-1.03,11.7"/>
</svg>