<?xml version="1.0" encoding="utf-8"?>
<!-- Generator: Adobe Illustrator 27.0.0, SVG Export Plug-In . SVG Version: 6.00 Build 0)  -->
<svg version="1.1" id="Layer_1" xmlns="http://www.w3.org/2000/svg" xmlns:xlink="http://www.w3.org/1999/xlink" x="0px" y="0px"
	 viewBox="0 0 1000 1000" style="enable-background:new 0 0 1000 1000;" xml:space="preserve">
<style type="text/css">
	.st0{fill:none;}
	.st1{fill:none;stroke:#000000;stroke-miterlimit:10;}
	.st2{opacity:0.1;fill:url(#New_Pattern_10);}
	.st3{opacity:0.3;fill:url(#New_Pattern);}
</style>
<pattern  width="100" height="100" patternUnits="userSpaceOnUse" id="New_Pattern" viewBox="0 -223 100 100" style="overflow:visible;">
	<g>
		<rect y="-223" class="st0" width="100" height="100"/>
		<line class="st1" x1="50" y1="-146" x2="50" y2="0"/>
		<line class="st1" x1="50" y1="-246" x2="50" y2="-100"/>
		<line class="st1" x1="50" y1="-346" x2="50" y2="-200"/>
	</g>
</pattern>
<pattern  width="200" height="200" patternUnits="userSpaceOnUse" id="New_Pattern_10" viewBox="812.9 -1097.9 200 200" style="overflow:visible;">
	<g>
		<rect x="812.9" y="-1097.9" class="st0" width="200" height="200"/>
		<line class="st1" x1="1999.4" y1="-0.4" x2="1000.4" y2="-999.4"/>
		<line class="st1" x1="1799.4" y1="-0.4" x2="800.4" y2="-999.4"/>
		<line class="st1" x1="1599.4" y1="-0.4" x2="600.4" y2="-999.4"/>
		<line class="st1" x1="1399.4" y1="-0.4" x2="400.4" y2="-999.4"/>
		<line class="st1" x1="1199.4" y1="-0.4" x2="200.4" y2="-999.4"/>
		<line class="st1" x1="999.4" y1="-0.4" x2="0.4" y2="-999.4"/>
		<line class="st1" x1="1999.4" y1="-200.4" x2="1000.4" y2="-1199.4"/>
		<line class="st1" x1="1799.4" y1="-200.4" x2="800.4" y2="-1199.4"/>
		<line class="st1" x1="1599.4" y1="-200.4" x2="600.4" y2="-1199.4"/>
		<line class="st1" x1="1399.4" y1="-200.4" x2="400.4" y2="-1199.4"/>
		<line class="st1" x1="1199.4" y1="-200.4" x2="200.4" y2="-1199.4"/>
		<line class="st1" x1="999.4" y1="-200.4" x2="0.4" y2="-1199.4"/>
		<line class="st1" x1="1999.4" y1="-400.4" x2="1000.4" y2="-1399.4"/>
		<line class="st1" x1="1799.4" y1="-400.4" x2="800.4" y2="-1399.4"/>
		<line class="st1" x1="1599.4" y1="-400.4" x2="600.4" y2="-1399.4"/>
		<line class="st1" x1="1399.4" y1="-400.4" x2="400.4" y2="-1399.4"/>
		<line class="st1" x1="1199.4" y1="-400.4" x2="200.4" y2="-1399.4"/>
		<line class="st1" x1="999.4" y1="-400.4" x2="0.4" y2="-1399.4"/>
		<line class="st1" x1="1999.4" y1="-600.4" x2="1000.4" y2="-1599.4"/>
		<line class="st1" x1="1799.4" y1="-600.4" x2="800.4" y2="-1599.4"/>
		<line class="st1" x1="1599.4" y1="-600.4" x2="600.4" y2="-1599.4"/>
		<line class="st1" x1="1399.4" y1="-600.4" x2="400.4" y2="-1599.4"/>
		<line class="st1" x1="1199.4" y1="-600.4" x2="200.4" y2="-1599.4"/>
		<line class="st1" x1="999.4" y1="-600.4" x2="0.4" y2="-1599.4"/>
		<line class="st1" x1="1999.4" y1="-800.4" x2="1000.4" y2="-1799.4"/>
		<line class="st1" x1="1799.4" y1="-800.4" x2="800.4" y2="-1799.4"/>
		<line class="st1" x1="1599.4" y1="-800.4" x2="600.4" y2="-1799.4"/>
		<line class="st1" x1="1399.4" y1="-800.4" x2="400.4" y2="-1799.4"/>
		<line class="st1" x1="1199.4" y1="-800.4" x2="200.4" y2="-1799.4"/>
		<line class="st1" x1="999.4" y1="-800.4" x2="0.4" y2="-1799.4"/>
		<line class="st1" x1="1999.4" y1="-1000.4" x2="1000.4" y2="-1999.4"/>
		<line class="st1" x1="1799.4" y1="-1000.4" x2="800.4" y2="-1999.4"/>
		<line class="st1" x1="1599.4" y1="-1000.4" x2="600.4" y2="-1999.4"/>
		<line class="st1" x1="1399.4" y1="-1000.4" x2="400.4" y2="-1999.4"/>
		<line class="st1" x1="1199.4" y1="-1000.4" x2="200.4" y2="-1999.4"/>
		<line class="st1" x1="999.4" y1="-1000.4" x2="0.4" y2="-1999.4"/>
	</g>
</pattern>
<rect x="0.5" y="0.5" class="st2" width="999" height="1000"/>
<rect x="0.5" y="0.5" class="st3" width="999" height="1000"/>
</svg>
