<?xml version="1.0" encoding="UTF-8"?>
<svg id="a" data-name="Layer 1" xmlns="http://www.w3.org/2000/svg" xmlns:xlink="http://www.w3.org/1999/xlink" viewBox="0 0 108.98 111.93">
  <defs>
    <style>
      .d {
        fill: url(#b);
      }

      .e {
        fill: #3ecf8e;
      }

      .f {
        fill: url(#c);
        fill-opacity: .2;
      }
    </style>
    <linearGradient id="b" x1="50.32" y1="50.15" x2="90.51" y2="33.3" gradientTransform="translate(0 113.58) scale(1 -1)" gradientUnits="userSpaceOnUse">
      <stop offset="0" stop-color="#249361"/>
      <stop offset="1" stop-color="#3ecf8e"/>
    </linearGradient>
    <linearGradient id="c" x1="52.24" y1="91.77" x2="70.57" y2="57.27" gradientTransform="translate(0 113.58) scale(1 -1)" gradientUnits="userSpaceOnUse">
      <stop offset="0" stop-color="#000"/>
      <stop offset="1" stop-color="#000" stop-opacity="0"/>
    </linearGradient>
  </defs>
  <path class="d" d="M63.68,110.07c-2.86,3.6-8.66,1.63-8.73-2.97l-1.01-67.25h45.22c8.19,0,12.76,9.46,7.67,15.87l-43.15,54.35Z"/>
  <path class="f" d="M63.68,110.07c-2.86,3.6-8.66,1.63-8.73-2.97l-1.01-67.25h45.22c8.19,0,12.76,9.46,7.67,15.87l-43.15,54.35Z"/>
  <path class="e" d="M45.29,1.86c2.86-3.6,8.66-1.63,8.73,2.97l.44,67.25H9.81c-8.19,0-12.76-9.46-7.67-15.87L45.29,1.86Z"/>
</svg>